REM DIRINDEX 1\5,1\2\6,1\2\7,1\3\8,1\3\9,1\4\10,1\4\11,1\4\12
REM DIRNAME folder01,folder02,folder03,folder04,folder05,folder06,folder07,folder08,folder09,folder10,folder11,folder12
TITLE ""
FILE "EJE_DB3000_5th_4B_37.mp3" MP3
  TRACK 01 AUDIO
    TITLE "0:"
    INDEX 01 00:00:00
  TRACK 02 AUDIO
    TITLE "10:cjc026_09609"
    INDEX 01 00:00:05
  TRACK 03 AUDIO
    TITLE "0:"
    INDEX 01 00:01:01
  TRACK 04 AUDIO
    TITLE "11:cjc026_09610"
    INDEX 01 00:01:30
  TRACK 05 AUDIO
    TITLE "0:"
    INDEX 01 00:02:24
  TRACK 06 AUDIO
    TITLE "12:cjc026_09611"
    INDEX 01 00:02:49
  TRACK 07 AUDIO
    TITLE "0:"
    INDEX 01 00:03:45
  TRACK 08 AUDIO
    TITLE "10:cjc026_09612"
    INDEX 01 00:03:72
  TRACK 09 AUDIO
    TITLE "0:"
    INDEX 01 00:04:64
  TRACK 10 AUDIO
    TITLE "11:cjc026_09613"
    INDEX 01 00:05:16
  TRACK 11 AUDIO
    TITLE "0:"
    INDEX 01 00:06:18
  TRACK 12 AUDIO
    TITLE "12:cjc026_09614"
    INDEX 01 00:06:43
  TRACK 13 AUDIO
    TITLE "0:"
    INDEX 01 00:07:35
  TRACK 14 AUDIO
    TITLE "10:cjc026_09615"
    INDEX 01 00:07:60
  TRACK 15 AUDIO
    TITLE "0:"
    INDEX 01 00:08:56
  TRACK 16 AUDIO
    TITLE "11:cjc026_09616"
    INDEX 01 00:09:08
  TRACK 17 AUDIO
    TITLE "0:"
    INDEX 01 00:10:06
  TRACK 18 AUDIO
    TITLE "12:cjc026_09617"
    INDEX 01 00:10:31
  TRACK 19 AUDIO
    TITLE "0:"
    INDEX 01 00:11:29
  TRACK 20 AUDIO
    TITLE "10:cjc026_09618"
    INDEX 01 00:11:54
  TRACK 21 AUDIO
    TITLE "0:"
    INDEX 01 00:12:61
  TRACK 22 AUDIO
    TITLE "11:cjc026_09619"
    INDEX 01 00:13:10
  TRACK 23 AUDIO
    TITLE "0:"
    INDEX 01 00:14:21
  TRACK 24 AUDIO
    TITLE "12:cjc026_09620"
    INDEX 01 00:14:45
  TRACK 25 AUDIO
    TITLE "0:"
    INDEX 01 00:15:52
  TRACK 26 AUDIO
    TITLE "10:cjc026_09621"
    INDEX 01 00:16:02
  TRACK 27 AUDIO
    TITLE "0:"
    INDEX 01 00:17:08
  TRACK 28 AUDIO
    TITLE "11:cjc026_09622"
    INDEX 01 00:17:33
  TRACK 29 AUDIO
    TITLE "0:"
    INDEX 01 00:18:35
  TRACK 30 AUDIO
    TITLE "12:cjc026_09623"
    INDEX 01 00:18:60
  TRACK 31 AUDIO
    TITLE "0:"
    INDEX 01 00:19:65
  TRACK 32 AUDIO
    TITLE "10:cjc026_09624"
    INDEX 01 00:20:18
  TRACK 33 AUDIO
    TITLE "0:"
    INDEX 01 00:22:17
  TRACK 34 AUDIO
    TITLE "11:cjc026_09625"
    INDEX 01 00:22:42
  TRACK 35 AUDIO
    TITLE "0:"
    INDEX 01 00:23:51
  TRACK 36 AUDIO
    TITLE "12:cjc026_09626"
    INDEX 01 00:24:04
  TRACK 37 AUDIO
    TITLE "0:"
    INDEX 01 00:26:03
  TRACK 38 AUDIO
    TITLE "10:cjc026_09627"
    INDEX 01 00:26:28
  TRACK 39 AUDIO
    TITLE "0:"
    INDEX 01 00:27:28
  TRACK 40 AUDIO
    TITLE "11:cjc026_09628"
    INDEX 01 00:27:55
  TRACK 41 AUDIO
    TITLE "0:"
    INDEX 01 00:28:74
  TRACK 42 AUDIO
    TITLE "12:cjc026_09629"
    INDEX 01 00:29:27
  TRACK 43 AUDIO
    TITLE "0:"
    INDEX 01 00:30:26
  TRACK 44 AUDIO
    TITLE "10:cjc026_09630"
    INDEX 01 00:30:52
  TRACK 45 AUDIO
    TITLE "0:"
    INDEX 01 00:31:47
  TRACK 46 AUDIO
    TITLE "11:cjc026_09631"
    INDEX 01 00:32:00
  TRACK 47 AUDIO
    TITLE "0:"
    INDEX 01 00:33:09
  TRACK 48 AUDIO
    TITLE "12:cjc026_09632"
    INDEX 01 00:33:34
  TRACK 49 AUDIO
    TITLE "0:"
    INDEX 01 00:34:32
  TRACK 50 AUDIO
    TITLE "10:cjc026_09633"
    INDEX 01 00:34:59
  TRACK 51 AUDIO
    TITLE "0:"
    INDEX 01 00:35:63
  TRACK 52 AUDIO
    TITLE "11:cjc026_09634"
    INDEX 01 00:36:15
  TRACK 53 AUDIO
    TITLE "0:"
    INDEX 01 00:37:26
  TRACK 54 AUDIO
    TITLE "12:cjc026_09635"
    INDEX 01 00:37:52
  TRACK 55 AUDIO
    TITLE "0:"
    INDEX 01 00:38:57
  TRACK 56 AUDIO
    TITLE "10:cjc026_09636"
    INDEX 01 00:39:07
  TRACK 57 AUDIO
    TITLE "0:"
    INDEX 01 00:40:15
  TRACK 58 AUDIO
    TITLE "11:cjc026_09637"
    INDEX 01 00:40:40
  TRACK 59 AUDIO
    TITLE "0:"
    INDEX 01 00:41:36
  TRACK 60 AUDIO
    TITLE "12:cjc026_09638"
    INDEX 01 00:41:63
  TRACK 61 AUDIO
    TITLE "0:"
    INDEX 01 00:42:68
  TRACK 62 AUDIO
    TITLE "10:cjc026_09639"
    INDEX 01 00:43:19
  TRACK 63 AUDIO
    TITLE "0:"
    INDEX 01 00:44:12
  TRACK 64 AUDIO
    TITLE "11:cjc026_09640"
    INDEX 01 00:44:36
  TRACK 65 AUDIO
    TITLE "0:"
    INDEX 01 00:45:32
  TRACK 66 AUDIO
    TITLE "12:cjc026_09641"
    INDEX 01 00:45:55
  TRACK 67 AUDIO
    TITLE "0:"
    INDEX 01 00:46:49
  TRACK 68 AUDIO
    TITLE "10:cjc026_09642"
    INDEX 01 00:46:74
  TRACK 69 AUDIO
    TITLE "0:"
    INDEX 01 00:48:00
  TRACK 70 AUDIO
    TITLE "11:cjc026_09643"
    INDEX 01 00:48:24
  TRACK 71 AUDIO
    TITLE "0:"
    INDEX 01 00:49:35
  TRACK 72 AUDIO
    TITLE "12:cjc026_09644"
    INDEX 01 00:49:59
  TRACK 73 AUDIO
    TITLE "0:"
    INDEX 01 00:50:60
  TRACK 74 AUDIO
    TITLE "10:cjc026_09645"
    INDEX 01 00:51:11
  TRACK 75 AUDIO
    TITLE "0:"
    INDEX 01 00:52:10
  TRACK 76 AUDIO
    TITLE "11:cjc026_09646"
    INDEX 01 00:52:36
  TRACK 77 AUDIO
    TITLE "0:"
    INDEX 01 00:54:32
  TRACK 78 AUDIO
    TITLE "12:cjc026_09647"
    INDEX 01 00:54:60
  TRACK 79 AUDIO
    TITLE "0:"
    INDEX 01 00:55:57
  TRACK 80 AUDIO
    TITLE "10:cjc026_09648"
    INDEX 01 00:56:08
  TRACK 81 AUDIO
    TITLE "0:"
    INDEX 01 00:57:07
  TRACK 82 AUDIO
    TITLE "11:cjc026_09649"
    INDEX 01 00:57:35
  TRACK 83 AUDIO
    TITLE "0:"
    INDEX 01 00:59:49
  TRACK 84 AUDIO
    TITLE "12:cjc026_09650"
    INDEX 01 01:00:00
  TRACK 85 AUDIO
    TITLE "0:"
    INDEX 01 01:00:74
  TRACK 86 AUDIO
    TITLE "10:cjc026_09651"
    INDEX 01 01:01:27
  TRACK 87 AUDIO
    TITLE "0:"
    INDEX 01 01:02:26
  TRACK 88 AUDIO
    TITLE "11:cjc026_09652"
    INDEX 01 01:02:52
  TRACK 89 AUDIO
    TITLE "0:"
    INDEX 01 01:03:65
  TRACK 90 AUDIO
    TITLE "12:cjc026_09653"
    INDEX 01 01:04:17
  TRACK 91 AUDIO
    TITLE "0:"
    INDEX 01 01:05:15
